<svg xmlns="http://www.w3.org/2000/svg" width="350" height="79" xmlns:xlink="http://www.w3.org/1999/xlink"><defs><pattern id="d" xlink:href="#a" patternTransform="translate(65.874 154.558) scale(.7569)"/><linearGradient id="b"><stop offset="0" stop-color="#4da44c"/><stop offset="1" stop-color="#379bcf"/></linearGradient><linearGradient id="c" x1="62.6225" x2="288.6376" y1="372.1363" y2="372.1363" xlink:href="#b" gradientUnits="userSpaceOnUse"/><pattern id="a" width="473.479" height="113.0061" patternUnits="userSpaceOnUse" patternTransform="translate(61.62 103.676)"><g stroke-opacity="0" stroke-width="1.25" color="#000"><path fill="url(#c)" d="M62.6225 315.6333h226.015v113.006H62.6225z" style="isolation:auto;mix-blend-mode:normal" overflow="visible" solid-color="#000000" transform="translate(-62.622 -315.633)"/><path d="M226.0156.0003h247.464v113.006h-247.464z" style="isolation:auto;mix-blend-mode:normal" overflow="visible" solid-color="#000000"/></g></pattern></defs><path fill="url(#d)" d="M187.845 233.294c0-.1046-.332-.183-.738-.1745-.406.009-1.249-.0838-1.8733-.2053-.6245-.1214-1.2232-.1377-1.3306-.0362-.181.172-1.004-.009-2.075-.4553-.775-.3235-1.476-.4213-1.476-.206 0 .3305-.648.2377-1.294-.1854-.328-.215-1.091-.565-1.695-.7778-.921-.3244-1.098-.3346-1.098-.063 0 .42.003.4206-1.32-.244-1.019-.512-2.147-.7806-1.794-.427.139.139-.366.7676-.616.7676-.259 0-.122-.873.154-.981.157-.061-.05-.185-.458-.275-.408-.09-.797-.253-.865-.361-.067-.109-.301-.198-.52-.198-.219 0-.831-.209-1.361-.465s-1.162-.409-1.405-.34c-.243.069-.661.188-.929.264-.41.118-.467.064-.362-.34.098-.373.017-.487-.364-.512l-.943-.06c-.25-.015-.812-.195-1.249-.399-2.091-.976-2.739-1.175-2.995-.918-.189.189-.184.341.019.585.214.258.213.368-.008.504-.155.096-.318.063-.364-.073-.166-.499-1.118-1.342-2.699-2.391-.891-.591-1.671-1.075-1.733-1.075-.062 0-.17.216-.239.48l-.125.48-.664-.473c-.714-.508-1.146-.419-.602.125.182.181.33.414.33.516 0 .293-.777.516-.866.248-.044-.132-.213-.24-.376-.24s-.457-.247-.655-.548c-.25-.382-.499-.512-.82-.428-.346.091-.461.012-.461-.317 0-.555-1.031-1.326-2.052-1.536-.432-.088-1.211-.459-1.731-.823-.52-.364-1.146-.662-1.392-.662-.245 0-.564-.143-.709-.317-.144-.174-.617-.383-1.049-.464-.841-.158-1.085-.581-.335-.581.248 0 .65-.17.892-.377.433-.371.431-.385-.141-.836-.32-.252-.93-.516-1.356-.588-.425-.071-.744-.23-.707-.353.037-.123.246-.193.464-.156.219.037.398-.044.398-.181s-.179-.316-.397-.398c-.218-.082-.887-.437-1.486-.788-.598-.351-1.232-.638-1.407-.638-.176 0-.419-.178-.541-.395-.122-.217-.294-.323-.382-.235-.235.235-1.004-.236-.925-.565.038-.154.025-.203-.027-.11-.289.516-1.91-.311-1.717-.875.047-.138-.275-.526-.717-.863-.442-.337-.803-.76-.803-.941 0-.432.209-.416.73.056.41.371.422.354.333-.459-.052-.464-.26-1.029-.465-1.255-.204-.226-.371-.632-.371-.903 0-.491-.361-.616-1.451-.499-.322.035-.391-.052-.277-.351.222-.578-1.597-2.262-2.044-1.891-.173.144-.315.395-.315.559s-.23.33-.511.37c-.327.047-.536.255-.583.582-.06.426-.197.501-.831.454-.836-.061-.785-.243.337-1.218.312-.271.797-.695 1.078-.941s.511-.54.511-.655c0-.114-.605-.806-1.345-1.538l-1.345-1.33-1.07.656c-.588.361-1.306.81-1.594.997-3.284 2.136-4.627 2.952-4.854 2.952-.149 0-.953.414-1.787.92-.833.506-1.718 1.043-1.966 1.192-.247.15-.861.537-1.362.861-.501.324-1.678 1.052-2.615 1.618-.937.567-2.553 1.554-3.593 2.194-1.039.64-1.931 1.164-1.98 1.164-.049 0-.885.472-1.856 1.048-3.001 1.78-8.677 4.666-8.902 4.526-.32-.198-2.113.48-2.339.886-.245.437-1.083.468-1.083.039 0-.486-1.0814-.579-2.095-.181l-.915.359.753.254c1.088.366 1.09.753.005.927-.99.158-2.111 1.064-1.923 1.554.159.415-1.532 1.045-2.703 1.007-.526-.017-1.385.087-1.9072.231-.5223.144-1.0333.247-1.135.229-.102-.017-.287.002-.412.042s-1.0955.093-2.157.118c-1.0616.024-2.1856.054-2.498.065-2.446.089-2.952.04-2.952-.29 0-.234.3374-.385 1.0787-.485.593-.08 1.13-.163 1.192-.184.063-.022-.273-.448-.745-.948-.476-.503-.788-.715-.7-.475.134.366.078.413-.355.3-.68-.177-1.153.021-1 .419.218.57-.629.669-1.042.121-.248-.329-.51-.45-.766-.352-.219.085-.388.042-.388-.098 0-.135-.664-.557-1.476-.937-.811-.379-1.483-.815-1.491-.969-.065-1.166-.922-3.914-1.925-6.174-.164-.37-.246-.757-.181-.861.064-.104.01-.317-.12-.474-.13-.156-.278-.637-.329-1.068-.051-.431-.362-1.365-.691-2.075-.329-.71-.5984-1.45-.5984-1.644 0-.194-.204-.89-.454-1.547-.776-2.041-.8762-1.922 3.122-3.682 6.842-3.012 11.829-5.722 13.3577-7.256.384-.386 1.232-1.11 1.884-1.61 2.252-1.726 2.754-2.206 2.754-2.635 0-.237.113-.431.251-.431s.193.153.121.341c-.24.627.264.349.958-.527.464-.586.737-1.241.839-2.015.165-1.239.434-1.857.695-1.596.09.09.028.419-.139.731s-.244.626-.171.699c.272.272 1.129-.422 1.439-1.164.221-.527.429-.728.662-.638.188.072.341.222.341.333 0 .505.509.113 1.111-.854.4945-.794.678-.954.7384-.641.064.334.193.251.648-.418.312-.46.698-.786.857-.727.382.144 1.138-.631 1.319-1.353.187-.744.387-.853.8914-.484.385.281.387.333.034.838-.411.587-.498.993-.169.789.114-.07.26 0 .325.157.079.192.3095.075.704-.355.322-.352.528-.7343.457-.849-.1926-.312.631-1.333 1.082-1.341.215-.004 1.072-.6716 1.904-1.483.832-.812 1.605-1.476 1.718-1.476.113 0 .496-.215.851-.478.762-.563 1.746-.421 1.484.2144-.333.806-.374 1.171-.131 1.171.139 0 .253-.198.253-.4406 0-.554.413-.827.746-.493.41.41.738.309 2.597-.804 3.4376-2.056 3.9554-2.349 4.155-2.349.111 0 .551.23.9775.511s1.223.791 1.77 1.134c2.139 1.34 3.4195 2.1583 7.5196 4.805 4.319 2.788 5.394 3.459 8.235 5.14.874.5173 2.968 1.793 4.654 2.834 5.527 3.413 10.853 6.027 14.759 7.245.687.214 1.453.478 1.703.587.25.109.914.303 1.476.431 3.0217.691 5.347 1.163 7.38 1.497 1.249.206 2.731.478 3.293.604 1.713.387 6.993.503 8.515.188.7496-.155 1.799-.318 2.332-.363.988-.083 1.83-.339 5.838-1.781 1.246-.448 2.396-.765 2.5546-.704.159.061.289.019.289-.092 0-.2 2.28-1.3716 2.67-1.3716.11 0 .602-.3343 1.0927-.743 1.313-1.094 2.4-1.848 3.106-2.154.343-.149.624-.376.624-.503s.203-.232.451-.232c.275 0 .785-.441 1.306-1.129.661-.872.966-1.105 1.34-1.024.362.079.689-.14 1.286-.857.44-.53 1.448-1.647 2.24-2.481.792-.835 2.052-2.211 2.802-3.057.749-.846 1.517-1.697 1.706-1.891.189-.194.5952-.709.903-1.144.308-.436 1.056-1.405 1.663-2.154.607-.75 1.188-1.567 1.291-1.817.103-.25.452-.806.775-1.236.323-.43.587-.876.587-.989 0-.114.256-.408.568-.654.312-.246.568-.589.568-.763 0-.174.192-.418.426-.544.234-.125.765-.767 1.18-1.427 2.1343-3.394 4.241-6.386 5.136-7.293.915-.929 2.24-1.76 3.315-2.079.625-.186 1.276-.536 1.446-.779.169-.2427.887-.6576 1.594-.922 1.0734-.402 1.392-.437 1.928-.215.353.146.642.298.642.337 0 .039-.562.633-1.249 1.32s-1.249 1.4123-1.249 1.612c0 .6376.8693-.032.95-.731.063-.548.252-.685 1.548-1.119.812-.272 1.396-.502 1.2975-.511-.253-.0234.261-.925.527-.925.12 0 .229.281.241.625l.022.624.156-.568c.1045-.38.5194-.747 1.252-1.108.6024-.298 1.529-.987 2.06-1.533.53-.546 1.03-.992 1.11-.992.291 0 .136.86-.206 1.144-.193.16-.551.572-.795.915l-.444.623.48-.125c.422-.11.451-.07.237.329-.3.5604-1.337 1.2645-1.612 1.0943-.111-.069-.4243.157-.696.502-.439.557-.451.636-.1122.704.288.058.346.221.236.66-.093.371-.039.649.149.765.235.145.238.24.013.464-.224.225-.281.219-.281-.026 0-.224-.123-.196-.454.1032-.445.403-.454.396-.476-.3625-.021-.694-.039-.715-.18-.207-.087.311-.36.669-.606.795-1.197.611-3.6 3.73-3.19 4.14.169.17 1.471-1.399 2.016-2.43.537-1.015 1.074-1.441 1.074-.85 0 .18-.256.704-.568 1.165-.312.46-.568.922-.568 1.027 0 .105-.255.358-.567.563-.507.332-.567.525-.561 1.786.005 1.071.063 1.318.2384 1.017.128-.219.329-.398.448-.398.388 0 .227.674-.381 1.593-.481.726-.543.9662-.322 1.233.161.194.209.548.116.853-.148.486-.1074.475.584-.159.411-.377.686-.52.616-.32-.07.1982-.046.493.054.6542.224.362.48-.681.498-2.03.012-.87.056-.935.611-.893 1.024.077 1.392-.012 1.392-.338 0-.33.939-1.048 1.371-1.048.139 0 .215.179.17.397-.045.2185-.257.383-.47.366-.214-.017-.3886.0955-.3886.251s-.256.5575-.568.8944c-.637.6875-.74 1.095-.2265.898.58-.2224 1.476.12 1.476.564 0 .533-1.157 1.625-1.299 1.226-.056-.157-.204-.223-.328-.146-.1243.077-.206-.05-.1815-.282.129-1.225-.324-1.242-.584-.022-.241 1.129-2.872 6.376-3.602 7.182-.192.212-.659 1.046-1.037 1.852-.378.806-.943 1.924-1.2556 2.484-.312.56-.568 1.186-.568 1.391 0 .204-.255.95-.568 1.656-.5584 1.262-.776 2.178-.363 1.525.314-.4964.703-.072.703.767 0 .422.112.837.248.921.151.093.19.46.1.939-.088.4715-.044.911.112 1.098.143.172.191.527.108.79-.119.374-.219.421-.464.218-.25-.207-.345-.129-.472.385-.088.355-.461 1.309-.829 2.121-.955 2.109-1.1174 2.725-.717 2.725.434 0 .41.161-.13.846-.25.318-.454.461-.454.318 0-.353-.831.134-1.5002.88-.546.608-.3197.927.297.419.336-.277.354-.221.192.603-.098.5-.192 1.257-.208 1.684-.016.426-.157.818-.313.87-.156.052-.284-.022-.284-.1644s-.102-.196-.227-.119c-.125.077-.227-.07-.227-.327s-.1287-.467-.285-.467c-.339 0-.932 1.24-.788 1.646.128.363-.771 2.168-1.527 3.066-.319.38-.58.787-.58.906s-.199.396-.442.616c-.243.22-.809 1.0163-1.258 1.77-.7696 1.292-.937 2.145-.485 2.473.1095.08.1223.27.0283.422-.134.216-.2092.215-.347-.008-.122-.197-.289-.065-.545.43-.207.399-.267.714-.137.714.128 0 .233-.102.233-.227s.122-.227.272-.227c.212 0 .212.0605 0 .2725-.15.15-.272.46-.272.689 0 .229-.23.5083-.511.6212-.281.113-.38.212-.219.219.541.026-.145.896-1.087 1.377-.769.392-1.65 1.362-1.237 1.362.077 0-.2.434-.617.965l-.757.965 1.065-.867c.586-.477 1.096-1.0895 1.135-1.362.052-.3645.202-.476.573-.425.39.054.578-.11.84-.738.185-.444.471-.8074.633-.8074.163 0 .835-1.124 1.493-2.497.658-1.3737 1.301-2.4977 1.429-2.4977.127 0 .215.128.195.284-.167 1.288.742.011 1.9-2.668.5068-1.1716 1.5638-2.3776 1.707-1.947.045.134-.143.6063-.418 1.05-.275.444-.453.854-.396.91.186.187.773-.677 1.165-1.716.411-1.092.979-1.967 1.159-1.787.06.0604-.107.744-.372 1.519-.481 1.411-2.018 3.448-2.601 3.448-.158 0-.468.587-.687 1.3053-.219.718-.633 1.595-.92 1.948-.286.353-.52.775-.52.937 0 .163-.198.436-.4403.607-.242.172-.472.512-.511.757-.038.245-.408.746-.82 1.112-.412.367-.908.974-1.102 1.349-.321.62-.319.701.012.886.373.209.51.862.18.862-.101 0-.382.147-.6248.328-.427.318-.418.348.282.995 1.007.929 1.1736 1.995.522 3.341-.595 1.228-1.259 1.56-2.7204 1.361-.717-.098-.921-.072-.6836.087.415.278.134.583-.7226.785-.548.129-.607.084-.567-.434.024-.317.174-.658.334-.756.225-.139.199-.3-.122-.729-.317-.422-1.055-1.77-1.333-2.432-.036-.084-.987.308-2.698 1.111-1.462.686-4.757 1.785-5.367 1.79-.204.002-.425.207-.49.457-.078.297-.007.454.204.454.534 0 2.132-.552 2.132-.736 0-.094.204-.172.454-.172.574 0 .569.11-.042.968l-.496.697.553-.169c1.442-.442 1.552-.435 1.415.087-.121.463-.073.484.753.334 1.086-.196 1.129-.2328.781-.652-.228-.275-.174-.442.298-.914.699-.699 1.052-.736 1.052-.11 0 .257.102.404.227.327.125-.077.227-.032.227.1s-.108.241-.24.241-.168.118-.079.262c.094.153.063.201-.075.116-.1307-.081-.396.096-.59.392-.2194.335-.679.599-1.217.7-.4755.089-.991.266-1.1454.3936-.154.128-.448.168-.653.09-.2044-.079-.51-.029-.678.111-.367.304-2.134.436-2.134.159 0-.107-.18-.098-.4.019-.421.225-4.0646.181-4.298-.052-.074-.075-.01-.286.142-.47.235-.2828.188-.318-.302-.229-.834.151-1.6613.489-1.819.744-.074.121-.34.166-.589.101-.255-.067-.454-.007-.454.137 0 .157-.394.24-1.022.2162-.562-.021-1.022-.124-1.022-.228zm7.4366-1.923c.281-.0753.511-.2894.511-.4757 0-.2463-.1523-.3005-.5578-.1987-.8498.2132-1.713.5652-1.713.6983 0 .161 1.127.145 1.7597-.024zm-20.0038-3.224c-.2067-.2284-.3758-.4682-.3758-.5327 0-.151 2.4522-.013 3.1222.1757.552.1555.6898-.1667.227-.531-.4283-.3375-1.601-.5805-1.4247-.2954.1854.3-.2215.305-.7355.009-.2168-.1248-.6814-.329-1.0324-.4537-.6715-.239-.6516-.751.021-.54.3232.101.3145.06-.0507-.237-.592-.482-.809-.452-.809.111 0 .325-.123.447-.398.395-.299-.057-.415-.34-.466-1.138-.064-.99-.137-1.102-1.075-1.652-1.146-.671-1.581-1.28-1.194-1.668.186-.187.09-.316-.366-.489-1.301-.494-1.791-.062-.618.545.715.37 1.049.939.683 1.165-.128.079-.371-.045-.54-.276-.169-.231-.376-.35-.461-.266-.085.085.073.34.35.567 1.28 1.051 1.854 2.066.978 1.73-.254-.098-.324-.058-.214.12.09.146.359.265.597.265.438 0 1 .735.751.984-.074.075-.311.041-.526-.074-.33-.176-.375-.122-.285.349.07.368.001.563-.204.574-.171.009-.106.103.144.211.693.298 1.021.261 1.021-.114 0-.595.412-.367.561.311.147.67.935 1.09 2.142 1.142.515.022.524-.001.17-.392zm-2.9493-3.1422c-.2678-.268-.1613-.757.165-.757.264 0 .592.4508.592.8134 0 .153-.5916.109-.757-.0564zm10.975 3.1032c-.8205-.2627-1.5894-.2627-1.5894 0 0 .125.486.217 1.079.2045.879-.0185.974-.0562.511-.2045zm-11.694-.454c-.2498-.1074-.6585-.1922-.9083-.1886-.365.005-.3428.0423.1135.1885.7764.248 1.3734.248.7948 0zm14.7137-.1435c.186-.186-.2444-.992-.5298-.992-.1205 0-.219.1874-.219.4163 0 .6133.402.9224.7488.5757zm13.7268-.27c.281-.156.511-.4777.511-.7146 0-.237.1832-.49.4072-.561.224-.071.776-.461 1.227-.867.4506-.406 1.104-.936 1.4516-1.178.3477-.242.5178-.478.378-.525-.3227-.108-1.4733.481-1.867.956-.3468.418-2.217 1.712-2.474 1.712-.18 0-1.3936 1.197-1.3936 1.375 0 .215 1.2743.071 1.7598-.199zm-31.3384-.4246c-.211-.212-.4476-.321-.5255-.243-.223.223.12.626.534.626.347 0 .346-.03-.008-.384zm-2.0883-.283c-.0823-.133-.2584-.242-.3912-.242-.15 0-.133.13.046.346.312.375.59.291.346-.104zm25.6697.127c.087-.227.4043-.279 1.1655-.194.9602.108 1.0312.082.866-.313-.099-.238-.2298-.661-.2907-.942-.102-.471-.0302-.511.913-.511.701 0 1.0654-.108 1.1548-.341.1597-.416 1.501-.466 1.5218-.057.008.156.1068.054.2198-.227.237-.59.674-.684.674-.146 0 .381.427.347 1.693-.135.6997-.266.777-.552.0904-.334-.4135.131-.4683.082-.3618-.325.1638-.626-.293-.627-1.5827-.003-.542.262-1.468.521-2.058.576-1.676.154-2.779.519-3.38 1.12-.303.303-.793.552-1.088.552-.536 0-.567.179-.225 1.305.115.378.539.361.689-.028zm-22.2215-.37c-.3175-.25-.6925-.454-.8333-.454-.1857 0-.1892.125-.013.454.1475.275.4755.454.8334.454h.5904l-.5774-.454zm-1.3004-.272c0-.338-.612-.864-1.005-.864-.335 0-.503.686-.234.955.211.211 1.24.134 1.24-.092zm-6.615-.782c-.545-.297-1.373-.718-1.84-.936-.778-.362-1.169-.963-.626-.963.125 0 .227-.143.227-.317 0-.36-.613-.661-.938-.46-.119.074-.365.01-.547-.141-.232-.194-.33-.199-.33-.02 0 .14.102.255.227.255s.227.102.227.227-.153.227-.34.227-.34-.09-.34-.201-.255-.25-.568-.309c-.915-.175-.653.202.511.737 2.432 1.116 3.527 1.715 3.53 1.929.005.263 1.314.761 1.606.61.108-.056-.249-.345-.794-.642zm28.269.486c-.094-.245-.476-.341-1.355-.341-.673 0-1.224.089-1.224.199 0 .109.46.147 1.022.084.676-.076 1.022-.029 1.022.141 0 .141.15.256.334.256.204 0 .283-.133.203-.341zm-24.508-.542c.225-.363-.487-.732-1.11-.576-.449.113-.738.023-1.14-.355-.586-.552-1.045-.465-.879.166.071.271.369.416.936.457.458.033.933.161 1.055.284.278.278.972.291 1.139.022zm18.853-.269c-.072-.116-.29-.211-.485-.211-.288 0-.302.063-.074.338.293.353.788.241.56-.127zm22.376-2.836c0-.154.26-.52.578-.814.813-.752 2.638-3.58 2.837-4.395.092-.375.235-.886.318-1.136.084-.25-.201.21-.631 1.022-.806 1.519-2.845 3.856-3.372 3.865-.357.006-1.545 1.63-1.545 2.113 0 .188-.086.376-.192.418-.287.113-.537 1.324-.273 1.324.124 0 .158.179.077.397s.382-.258 1.029-1.059c.647-.801 1.176-1.582 1.176-1.736zm-15.611 1.946c.539-.005.504-.393-.051-.57-.297-.094-.624.027-.965.356l-.516.499.568-.142c.313-.078.747-.143.965-.145zm-25.488-.331c0-.055-.102-.164-.227-.241-.125-.077-.227-.032-.227.1s.102.24.227.24.227-.045.227-.1zm25.077-1.257c.321-.122.583-.389.583-.592 0-.236.124-.324.341-.24.188.072.341.031.341-.089 0-.374-.59-.243-1.013.225-.222.245-.506.423-.631.397-.125-.026-.275.08-.332.236-.125.342-.04.349.714.062zm3.762-.005c0-.125-.102-.228-.227-.228s-.227.102-.227.227.103.227.227.227c.125 0 .228-.102.228-.227zm3.056-.211c.072-.116-.083-.279-.344-.362-.539-.171-.784-.028-.563.33.185.298.731.317.908.031zm-29.395-1.028c0-.166-.161-.365-.359-.441-.515-.198-.776-.17-.776.082 0 .121.153.161.341.089.187-.072.341-.018.341.12 0 .138-.128.253-.284.255-.195.002-.18.069.046.212.389.246.692.107.692-.318zm37.216-.465c.404-.562.818-1.022.921-1.022.103 0 .236-.255.295-.567.179-.936-.604-.719-1.025.283-.196.469-.579 1.184-.851 1.59-.756 1.128-.173.878.661-.284zm-14.759.587c.186-.117.255-.362.168-.59-.121-.316-.212-.337-.487-.109-.351.291-.465.908-.167.902.094-.002.313-.094.488-.204zm-101.249-.247c0-.125-.045-.227-.1-.227-.055 0-.163.102-.24.227-.077.125-.032.227.1.227.133 0 .241-.102.241-.227zm84.697-.348c0-.49-.617-.669-1.055-.306-.331.276-.314.321.174.457.828.232.882.223.882-.151zm30.428-.914c0-.18-.102-.327-.227-.327s-.227.21-.227.467.103.404.227.327c.125-.077.227-.288.227-.468zm-29.845-.538c-.195-.216-.363-.538-.373-.715-.01-.179-.064-.212-.121-.074-.163.396.339 1.497.608 1.331.161-.1.123-.282-.113-.543zm-16.243-.231c-.255-.478-.66-.798-.814-.644-.102.102.748 1.085.938 1.085.062 0 .006-.199-.123-.442zm5.216.341c0-.24-.436-.34-.565-.131-.078.127.017.231.212.231s.354-.045.354-.101zm44.294-1.467c.408-.911.408-.931-.02-.931-.259 0-.585.287-.802.706-.201.388-.254.638-.119.554.319-.197.315.225-.008.855-.238.466-.229.473.14.121.217-.207.581-.794.81-1.306zm-48.01.5c-.068-.069-.293-.06-.5.02-.312.12-.326.204-.083.496.264.317.313.315.501-.02.114-.205.152-.428.084-.497zm2.581-.369c0-.058-.153-.164-.34-.236-.247-.095-.34.026-.34.446 0 .512.038.539.341.236.188-.187.341-.388.341-.446zm-5.285-.6c.039-.681-.024-.869-.261-.778-.171.066-.379.01-.461-.123-.082-.134-.279-.243-.437-.243-.458 0-.154 1.326.392 1.708.672.47.712.441.769-.565zm1.425.446c0-.125-.178-.226-.397-.224-.339.003-.348.035-.056.223.428.277.454.277.454 0zm2.498.138c0-.049-.153-.148-.34-.22-.187-.072-.34-.032-.34.089s.153.22.341.22.341-.04.341-.089zm-1.022-.592c-.077-.125-.242-.227-.367-.227s-.164.102-.087.227c.077.125.242.227.367.227s.164-.102.087-.227zm-15.781-1.084c0-.239-1.561-1.064-1.717-.908-.069.068.264.327.739.574l.922.479c.031.017.057-.049.057-.146zm10.899-.052c0-.125-.21-.227-.467-.227s-.404.102-.327.227c.078.125.288.227.468.227s.327-.102.327-.227zm-7.722-.17c-.001-.094-.256-.289-.567-.433-.311-.144-.566-.186-.566-.092s.23.282.511.417c.647.312.625.308.623.107zm6.587-.965c0-.125-.102-.227-.227-.227s-.227.102-.227.227.102.227.227.227.227-.102.227-.227zm-8.629-.161c-.187-.068-.559-.323-.827-.567-.339-.308-.536-.364-.647-.184-.218.353.551.899 1.248.885.338-.006.43-.061.227-.135zm46.777-.956c0-.24.067-.609.148-.821.123-.32.056-.357-.397-.217-.721.222-.704.189-.443.874.265.696.693.797.693.163zm19.213-.648c.463-.379.836-.995 1.475-2.436.166-.375.344-.772.396-.883.051-.111-.028-.127-.177-.035s-.368.423-.487.736c-.139.366-.335.523-.55.44-.501-.192-2.016 1.862-1.676 2.272.326.393.436.382 1.02-.095zm-72.574-.633c0-.195-.104-.29-.23-.211-.127.078-.172.237-.1.354.195.315.331.256.331-.143zm54.629-2.315c-.16-.16-1.04.185-1.04.409 0 .113.256.09.569-.053s.525-.303.471-.357zm-54.761-.934c.099-.16-1.759-2.074-2.013-2.074-.04 0-.124.197-.186.437-.202.773 1.809 2.27 2.2 1.637zm75.143-1.121c.196-.6.432-1.29.523-1.533.15-.398.126-.409-.232-.118-.58.472-1 1.408-.925 2.06.114.99.194.939.635-.41zM98.824 207.32c.609-.599.04-.6183-.959-.0326-1.5554.9114-1.8433 1.409-.479.828.6113-.2604 1.2586-.618 1.4385-.7954zm37.4027-.0393c.02-.341-.132-.742-.3404-.901-.568-.432-.838-.3566-.4113.115.207.2282.376.569.376.757 0 .266.189.645.3216.644.0103 0 .035-.2767.0545-.6148zm45.3786-3.6993c.179-.29-.573-.29-1.022 0-.266.172-.207.221.2708.2235.336.002.674-.099.752-.224zm1.8638-.822c.054-.161-.128-.2133-.495-.143-.792.1515-.924.4483-.187.42.329-.0124.636-.137.683-.2767zm-105.263-.78l.536-.4676-.681.399c-.897.525-.91.5365-.631.5365.132 0 .481-.2105.776-.4677zm109.629-.7633c.22-.264.184-.301-.197-.201-.255.067-.408.212-.34.323.167.269.224.256.537-.121zm-106.61-1.041c1.299-.642 3.371-2.119 3.495-2.49.069-.208-.153-.151-.666.17-.423.265-1.561.907-2.528 1.426-.967.52-1.701 1.036-1.633 1.148.176.284.29.262 1.333-.254zM99.2 189.02l.4323-.485-.7374.3775c-.788.403-.927.593-.433.593.168 0 .5-.2182.738-.485zm-.099-1.519c-.4186-.0602-.466-.136-.2487-.3974.2138-.2574.192-.323-.107-.323-.434 0-.696.527-.5066 1.02.109.2848.2306.294.755.057.6047-.2735.608-.285.108-.357zm279.26 35.0438v-11.013l2.8953.002c4.79.003 6.97.586 8.617 2.3055 1.2448 1.2994 1.743 2.739 1.7555 5.0727.009 1.738-.077 2.233-.577 3.303-.811 1.736-1.82 2.811-3.339 3.557-1.0854.533-1.5783.634-3.107.634-.999 0-2.0974-.0785-2.441-.1745l-.6243-.175v7.502h-3.179v-11.013zm8.045.4754c2.281-1.337 2.857-5.106 1.0994-7.195-.869-1.033-1.7967-1.342-4.028-1.342H381.54v4.301c0 3.0238.0785 4.3496.264 4.464 1.09.6737 3.2456.5666 4.602-.2284zm-182.738 9.477c-.309-.3086-.135-.5297.416-.5297.634 0 .7614.331.2086.5432-.4445.1704-.44.1705-.6245-.0138zm-26.9457-.7567c0-.125.102-.227.227-.227s.227.102.227.227-.102.227-.227.227-.227-.102-.227-.227zm-6.4595-1.116c-.073-.1185-.036-.275.0824-.348.1183-.073.275-.0364.348.082.073.1183.0363.275-.082.348-.1183.073-.275.0362-.348-.082zm31.8917-.673c0-.349.651-.7544.933-.5804.195.121.154.254-.147.474-.482.352-.786.394-.786.107zm-33.493-.709c.0777-.125.237-.227.354-.227.118 0 .214.102.214.227s-.1592.227-.354.227c-.195 0-.291-.102-.214-.227zm93.326-3.0308c-1.412-.649-2.289-2.3385-2.048-3.9448.282-1.878 1.859-3.055 5.8518-4.366 1.49-.489 1.533-.525 1.533-1.269 0-1.644-.7974-2.381-2.565-2.372-1.161.006-2.517.594-3.6374 1.578l-.837.734v-1.687c0-1.459.069-1.75.511-2.154 1.95-1.783 6.136-1.903 8.04-.231 1.474 1.294 1.541 1.581 1.627 6.92.082 5.12.08 5.111 1.174 4.485.832-.475.908-.429.908.549 0 .783-.103.954-.852 1.42-1.232.766-3.319.756-3.946-.018l-.443-.546-1.07.536c-1.283.642-3.275.814-4.249.366zm4.727-2.526c.586-.384.6096-.4775.6096-2.432 0-2.309.15-2.219-2.106-1.265-2.079.879-2.805 2.547-1.624 3.7282.494.494.735.568 1.548.476.529-.06 1.237-.289 1.572-.508zm24.565 2.4155c-1.116-.5345-2.012-1.4905-2.353-2.513-.155-.464-.258-2.432-.258-4.9387v-4.167h-1.249c-.84 0-1.249-.092-1.249-.2804 0-.299 5.21-5.623 5.503-5.623.095 0 .174.66.174 1.467v1.468l2.214.065 2.214.065v2.725l-2.214.065-2.214.065v4.079c0 3.759.035 4.115.448 4.528.246.247.699.511 1.006.588.606.152 2.978-.449 3.202-.812.351-.568.566-.103.566 1.227v1.451l-.965.393c-1.4897.607-3.724.675-4.8256.148zm27.625-.0176c-1.51-.5215-3.214-2.1414-3.94-3.7463-.445-.982-.524-1.532-.524-3.654 0-2.266.056-2.6035.604-3.642 1.354-2.566 3.786-3.912 6.652-3.682 3.354.269 5.3486 2.561 5.7216 6.5744l.143 1.536-5.126.061-5.126.061.496 1.239c.37.922.747 1.415 1.481 1.93.905.635 1.137.691 2.866.691 1.719 0 2.021-.072 3.5-.831l1.619-.831v3.053l-.851.474c-2.182 1.215-5.294 1.532-7.514.7654zm5.414-9.228c0-3.0833-4.72-3.877-6.303-1.06-.926 1.6475-.942 1.639 2.897 1.639h3.406v-.579zm19.868 9.1015c-.874-.315-1.615-.573-1.646-.574-.0317 0-.057-.767-.057-1.704 0-.936.053-1.703.118-1.703s.5062.246.981.545c1.0275.649 2.779 1.272 3.575 1.272.7903 0 1.8504-.587 2.019-1.118.198-.623-.23-1.199-1.4444-1.947-4.263-2.624-5.249-3.637-5.249-5.398 0-3.407 4.007-5.05 8.118-3.328l1.192.499v1.472c0 1.673.147 1.629-2.157.648-1.562-.665-2.743-.746-3.469-.237-1.086.761-.707 1.269 2.618 3.507 1.206.812 2.501 1.865 2.877 2.34 1.393 1.759.621 4.559-1.572 5.7-1.422.74-3.898.753-5.904.029zm-271.976-.245c-.3423-.294-.6225-.603-.6225-.685s.46-.081 1.022.003c.705.106 1.022.073 1.022-.107 0-.143.127-.213.284-.156.156.057.255.228.22.379s.144.329.397.395c.253.067.4604.262.4604.435 0 .41-.433.407-.5904-.004-.1364-.355-.4386-.348-1.1145.024-.3733.206-.569.155-1.0785-.284zm172.687-10.491l.059-11.069 4.541.002c4.402.002 4.58.02 5.792.587 2.594 1.213 3.5183 2.733 3.5183 5.788 0 1.899-.054 2.149-.689 3.175-1.3345 2.157-3.5407 3.051-7.5338 3.051h-2.337v9.537h-3.4104l.059-11.07zm8.919-2.016c2.1834-1.133 2.2396-4.422.095-5.573-.612-.328-1.284-.414-3.218-.414h-2.445v6.644l2.353-.105c1.743-.078 2.576-.221 3.215-.552zm21.2266 5.707v-7.38h2.952v3.253l.881-1.229c.986-1.377 2.326-2.251 3.45-2.251.859 0 2.463.714 3.043 1.355.377.417.363.491-.327 1.697-.397.694-.761 1.262-.809 1.262-.048 0-.467-.258-.932-.573-1.617-1.098-2.631-1.02-3.954.304-1.124 1.125-1.352 2.318-1.352 7.093v3.849h-2.952v-7.38zm23.843 0v-7.38h2.952v1.852l.918-.786c2.463-2.109 6.174-1.524 7.711 1.214.557.994.569 1.114.638 6.745l.071 5.734h-2.943l-.075-5.166c-.084-5.703-.214-6.29-1.544-6.978-1.271-.657-2.409-.386-3.855.921l-.92.831v10.392h-2.952v-7.38zm31.616.057l.06-7.323 1.522-.067 1.522-.067.068 1.528.068 1.529.616-.932c1.468-2.224 3.375-2.845 5.382-1.753 1.712.932 1.741 1.012.898 2.409-.402.667-.763 1.254-.801 1.304-.038.05-.466-.184-.95-.52-1.799-1.247-3.505-.867-4.577 1.02-.545.96-.57 1.178-.641 5.598l-.073 4.598h-3.152l.06-7.323zm24.924-3.804v-11.126h2.952v9.395l.625-.597c1.46-1.395 3.937-1.91 5.681-1.181 1.077.45 1.789 1.12 2.402 2.26.458.85.494 1.28.56 6.642l.071 5.734h-2.98v-4.89c0-3.886-.072-5.061-.349-5.725-.484-1.159-.951-1.615-1.821-1.778-1.154-.216-2.02.079-3.15 1.074l-1.037.913v10.406h-2.952v-11.127zm16.122 3.746v-7.379h3.179v14.759h-3.179v-7.38zm-221.27 4.444c-.071-.116-.026-.276.101-.354.127-.078.231.017.231.211 0 .399-.136.458-.331.143zm63.322-1.239c-.148-.386.051-.82.376-.82.287 0 .274.844-.015 1.023-.126.078-.288-.014-.361-.203zm-72.423-4.014c-.082-.133-.093-.299-.023-.369.187-.187.827.105.827.377 0 .308-.612.302-.804-.008zm-4.873-.546c0-.203.133-.282.341-.202.188.072.341.222.341.334s-.153.203-.341.203c-.187 0-.341-.15-.341-.333zm3.633.109c0-.153-.152-.219-.34-.146-.187.072-.34.04-.34-.07s.128-.243.283-.295c.172-.057.077-.205-.244-.376-.703-.377-1.473-1.161-1.304-1.329.075-.074.446.094.825.375.443.328 1.187.566 2.079.665 1.476.165 2.148.723.87.723-.389 0-.96.165-1.267.367-.392.257-.56.284-.56.09zm-1.703-.683c-.077-.125.071-.227.328-.227s.467.102.467.227-.147.227-.327.227c-.18 0-.39-.102-.467-.227zm77.772-1.816c0-.124.108-.227.241-.227.132 0 .177.103.1.227-.077.125-.185.227-.24.227-.055 0-.1-.102-.1-.227zm-79.247-.908c0-.125.102-.227.227-.227s.227.102.227.227-.102.227-.227.227-.227-.102-.227-.227zm-6.684-.43c-.069-.112.008-.462.172-.777.392-.756.961-.46.748.388-.145.576-.668.797-.92.388zm2.426.04c-.448-.161-.331-.518.17-.518.25 0 .454.096.454.214 0 .291-.281.427-.624.304zm92.181-.474c-1.325-1.238-1.392-3.695-.129-4.708 1.937-1.553 4.489-.283 4.745 2.36.116 1.196-.255 1.94-1.244 2.496-1.253.705-2.517.649-3.371-.149zm-98.366-1.627c-.259-.164-.276-.277-.072-.481.361-.361 1.006-.09.837.353-.154.403-.294.426-.765.128zm4.539-1.142c0-.125.102-.227.227-.227s.227.102.227.227-.102.227-.227.227-.227-.102-.227-.227zm2.465.075c-.346-.092-.737-1.194-.506-1.428.144-.145 1.304.583 1.403.881.045.135-.106.247-.335.249-.352.003-.363.038-.075.224.348.225.177.252-.487.075zm1.395-.605c0-.427.219-.595.59-.452.483.185.381.755-.136.755-.25 0-.454-.136-.454-.302zm-4.751-.926c-.172-.207-.185-.37-.039-.46.125-.077.338.067.473.32.28.524-.032.625-.434.14zm88.778.169c.049-.916 1.533-4.617 1.852-4.617.261 0 .225.628-.045.795-.125.078-.231.569-.237 1.092-.01.966-.791 2.657-1.307 2.829-.149.05-.267.005-.262-.098zm154.005-.251c-.63-.102-1.423-1.08-1.423-1.755 0-.278.212-.775.471-1.104.629-.799 1.953-.835 2.669-.072 1.174 1.249.024 3.214-1.716 2.932zm-151.631-.733c-.077-.125-.032-.227.1-.227s.241.102.241.227-.045.227-.1.227c-.055 0-.164-.102-.241-.227zm11.545-.453c-.594-.24-.891-1.374-.533-2.042.341-.637 1.218-.955 1.909-.692.643.244.714.345.919 1.299.27 1.259-.907 1.994-2.294 1.435zm-11.104-1.158c-.169-.273.786-.623 1.32-.483.228.059.377.223.331.363-.103.312-1.47.411-1.65.12zm1.65-1.029c-.177-.177.067-.766.318-.766.26 0 .266.616.008.775-.107.067-.253.063-.325-.009zm1.535-1.459c-.215-.349.08-.574.372-.283.163.163.167.29.012.386-.127.079-.3.032-.383-.103zm1.483-.442c0-.125.103-.227.227-.227.125 0 .227.102.227.227s-.102.227-.227.227-.227-.102-.227-.227zm-5.563-1.816c.077-.125.186-.227.241-.227.055 0 .1.102.1.227s-.108.227-.24.227-.177-.102-.1-.227zm1.476-1.046c0-.076.145-.714.322-1.419.177-.705.394-2.046.483-2.981.164-1.739.458-2.252 1.296-2.267.218-.004.397-.116.397-.25 0-.139-.193-.181-.454-.098-.265.084-.454.041-.454-.104 0-.291 1.086-.749 1.366-.576.106.065.225-.113.265-.396.087-.613 1.024-.851 1.23-.312.13.339.024.793-.763 3.273-.335 1.055-.341 1.23-.047 1.416.288.182.284.212-.028.215-.213.002-.527.404-.758.968-.34.833-.418.903-.568.511-.167-.436-.181-.433-.341.072-.29.912-1.944 2.57-1.944 1.948zm30.106-5.326c-3.949-.661-7.417-3.476-8.737-7.091-2.398-6.568 1.695-13.826 8.549-15.159 2.202-.428 5.692-.171 7.89.58 2.763.945 2.612.786 2.612 2.736v1.7l-.853-.435c-2.492-1.271-6.143-1.976-8.366-1.614-4.649.757-7.717 5.024-6.894 9.59.896 4.971 5.53 7.618 11.24 6.42l1.921-.403v-4.484h-4.087v-2.952h7.502l-.062 4.81-.061 4.81-1.851.625c-2.968 1.001-6.14 1.314-8.803.869zm26.454-.105c-1.553-.436-2.476-1.005-3.542-2.186-1.17-1.295-1.754-2.739-1.877-4.639-.205-3.164 1.118-5.634 3.811-7.117 1.429-.787 1.552-.813 3.86-.813 2.101 0 2.533.071 3.633.594 1.592.756 2.856 2.022 3.603 3.608.489 1.038.588 1.575.588 3.179 0 2.185-.568 3.762-1.906 5.285-1.693 1.929-5.381 2.872-8.17 2.089zm5.127-3.416c1.254-1 1.78-2.171 1.779-3.958-.001-1.185-.119-1.677-.602-2.5-1.403-2.39-4.905-2.977-7.042-1.179-2.286 1.924-1.968 6.337.569 7.89.834.511 1.151.571 2.685.511 1.547-.06 1.836-.144 2.611-.762zm10.626 3.447c-.754-.149-1.699-.407-2.1-.573l-.729-.302v-21.29h3.179v8.386l.823-.485c.588-.347 1.333-.516 2.607-.589 1.592-.092 1.917-.038 3.027.505 1.444.706 2.24 1.567 3.06 3.31.514 1.091.587 1.535.578 3.519-.012 2.442-.386 3.68-1.593 5.262-1.586 2.08-5.147 2.988-8.85 2.257zm4.787-3.063c1.814-.824 2.743-2.573 2.542-4.788-.216-2.379-1.492-4.01-3.33-4.257-1.003-.135-2.229.214-3.067.874l-.582.458v7.679l.625.137c.343.076.726.172.851.213.642.214 2.15.054 2.962-.315zm9.506 2.96c-2.361-1.106-2.754-4.236-.759-6.038.98-.886 1.108-.95 4.073-2.038l1.93-.708.07-.96c.057-.776-.039-1.068-.5-1.529-.473-.473-.787-.57-1.837-.57-1.551 0-2.506.38-3.725 1.481l-.933.843v-1.713c0-1.686.013-1.723.808-2.378 1.045-.861 2.166-1.184 4.101-1.181 1.849.002 3.613.706 4.342 1.731.795 1.118.965 2.304.967 6.712 0 2.334.087 4.297.192 4.362.105.065.565-.083 1.022-.328l.832-.445v2.07l-1.27.581c-1.518.695-2.672.615-3.413-.237l-.482-.555-1.115.552c-1.563.774-3.125.901-4.299.351zm4.378-2.326l.98-.474v-2.023c0-1.467-.078-2.023-.284-2.023-.156 0-.905.294-1.665.653-2.339 1.107-2.951 2.429-1.702 3.678.787.787 1.352.828 2.671.189zm53.093 2.436c-1.228-.571-1.983-1.593-2.104-2.847-.139-1.455.028-2.085.795-2.997.652-.774 2.881-1.911 5.113-2.606l1.305-.407v-.99c0-1.474-.715-2.106-2.383-2.106-1.443 0-2.759.557-3.918 1.659l-.738.701v-1.708c0-1.888.202-2.225 1.817-3.046 1.048-.532 3.777-.704 5.139-.322 1.344.377 2.678 1.631 3.009 2.83.143.517.251 2.789.252 5.266 0 2.397.087 4.411.192 4.476.105.065.565-.082 1.022-.327l.831-.445v1.004c0 .914-.076 1.051-.851 1.533-.614.382-1.189.53-2.063.53-1.03 0-1.289-.09-1.731-.604l-.519-.604-1.175.582c-1.402.694-3.044.871-3.991.431zm4.227-2.457l.883-.496v-2c0-1.45-.078-2.002-.284-2.002-.521 0-3.002 1.292-3.451 1.796-.673.757-.588 1.999.183 2.662.779.67 1.533.682 2.67.042zm12.017 2.513c-1.17-.356-2.002-1.035-2.564-2.093-.458-.865-.508-1.33-.583-5.431l-.081-4.485H378c-.6757 0-1.228-.082-1.228-.182s1.252-1.403 2.782-2.895l2.7813-2.713.067 1.533.067 1.533h4.521v2.725h-4.5417v4.097c0 4.048.007 4.104.5576 4.655.7098.709 2.238.753 3.584.103.517-.25.972-.454 1.011-.454.039 0 .0706.653.0706 1.451v1.452l-.926.37c-1.191.477-3.282.64-4.288.334zm11.526-.065c-2.084-.561-3.726-2.18-4.628-4.563-.572-1.511-.569-4.318.008-6.01.555-1.63 2.296-3.409 3.858-3.941 1.301-.443 3.44-.495 4.713-.113 1.257.376 2.755 1.776 3.329 3.111.5 1.162 1.044 4.22.817 4.588-.072.116-2.339.208-5.126.208h-4.997l.154.511c.594 1.97 1.599 2.952 3.461 3.381 1.43.33 3.053.027 4.932-.921l1.248-.63v3.075l-1.192.582c-2.071 1.01-4.515 1.279-6.576.724zm5.042-9.341c0-.69-.925-2.145-1.58-2.484-.367-.19-1.138-.345-1.712-.345-1.675 0-2.726.722-3.401 2.336l-.352.843h3.523c3.02 0 3.523-.05 3.523-.35zm-172.346 9.205c0-.125.16-.227.354-.227.195 0 .291.102.214.227-.077.125-.236.227-.354.227s-.214-.102-.214-.227zm40.419-10.889v-11.137h3.184l-.059 11.07-.059 11.07-1.533.067-1.533.068v-11.14zm54.649 10.965c-.084-.083-.152-5.09-.152-11.126v-10.975h3.179v22.253h-1.438c-.791 0-1.507-.068-1.59-.151zm18.617-.019c-.152-.247-8.778-21.836-8.778-21.97 0-.062.747-.112 1.661-.112h1.661l2.937 7.367c1.615 4.052 2.997 7.296 3.07 7.21.097-.114 4.727-11.48 5.822-14.292.074-.189.636-.284 1.687-.284 1.566 0 1.579.005 1.878.738.165.406 1.5 3.702 2.966 7.323 1.467 3.622 2.695 6.618 2.731 6.657.036.04 1.378-3.255 2.983-7.322l2.918-7.394h1.662c1.568 0 1.653.025 1.514.462-.081.255-2.068 5.236-4.416 11.07-3.487 8.664-4.352 10.62-4.723 10.676-.398.061-.881-1-3.981-8.742l-3.528-8.811-.435 1.021c-.239.562-1.853 4.522-3.585 8.799-2.443 6.032-3.239 7.777-3.546 7.777-.217 0-.442-.076-.5-.17zm64.793-7.199v-7.39h3.157l.067 1.39.068 1.391.739-1.032c1.66-2.317 3.895-2.621 6.186-.843l.568.441-.681 1.277c-.375.703-.736 1.312-.804 1.355-.067.043-.568-.222-1.112-.588-1.291-.867-2.436-.89-3.41-.07-1.377 1.158-1.474 1.566-1.599 6.672l-.114 4.655-1.533.067-1.532.067v-7.39zm-183.02 6.929c0-.118.102-.277.227-.354.125-.077.227.019.227.214 0 .194-.102.354-.227.354s-.227-.097-.227-.214zm4.768-.633c0-.566.35-.868.579-.498.086.139-.009.418-.212.62-.338.339-.367.329-.367-.122zm.908-.278c0-.379.52-1.373.718-1.373.264 0 .239.259-.093.974-.279.601-.624.821-.624.398zm3.179-.106c0-.198.162-.359.36-.359.401 0 .331.489-.09.629-.149.05-.27-.072-.27-.269zm-3.498-1.005c-.078-.127-.032-.3.103-.383.349-.216.575.08.283.371-.163.163-.29.167-.386.012zm4.08-.012c-.151-.245.508-.532.805-.349.115.072.151.225.079.342-.166.269-.719.274-.884.008zm-1.831-1.386c.077-.125.186-.227.241-.227.055 0 .1.102.1.227s-.108.227-.24.227-.177-.102-.1-.227zm-.34-1.022c0-.187.102-.34.227-.34s.227.154.227.341c0 .187-.102.34-.227.34s-.227-.153-.227-.34zm1.417-4.578c-.196-.079-.128-.242.22-.523.43-.349.46-.462.203-.773-.254-.306-.245-.385.056-.501.197-.075.42-.332.495-.57.227-.715.546-.49.337.238-.106.369-.134.896-.062 1.17.087.333-.009.6-.289.805-.445.325-.511.336-.958.156zm2.784-.787c.205-.68.731-1.245.953-1.023.215.215-.398 1.323-.807 1.458-.228.076-.266-.037-.146-.436zm-.877-.128c-.256-.256-.156-.524.195-.524.187 0 .341.096.341.214 0 .286-.354.492-.536.31zm-8.001-.612c-.163-.426.061-.82.468-.82.195 0 .263.166.186.458-.159.607-.49.79-.654.362zm6.039-3.413c0-.492.252-1.04.479-1.04.112 0 .203.307.203.681 0 .454-.114.681-.341.681-.188 0-.341-.145-.341-.322zm-128.295-.132c0-.125.159-.227.354-.227.195 0 .291.102.214.227-.077.125-.236.227-.354.227s-.213-.102-.213-.227zm130.338-.242c0-.462.472-1.12.803-1.12.461 0 .416.535-.082.986-.479.433-.72.478-.72.134zm-4.201-.212c-.077-.125-.039-.227.085-.227s.29-.204.37-.454c.2-.628.568-.57.568.089 0 .299-.162.606-.359.681-.471.181-.498.177-.663-.089zm2.839-1.589c0-.125.102-.227.227-.227s.227.102.227.227-.102.227-.227.227-.227-.102-.227-.227zm-3.86-6.585c0-.125.109-.227.241-.227s.177.102.1.227c-.077.125-.185.227-.24.227-.055 0-.1-.102-.1-.227zm-1.359-1.406c-.002-.211.099-.447.224-.525.288-.177.288.123 0 .568-.189.294-.22.288-.223-.043zm.792-.865c-.19-.308.067-.681.468-.681.368 0 .383.043.189.549-.157.408-.45.467-.657.132zm1.022-.506c0-.414.402-.757.626-.533.078.078-.031.314-.242.526-.354.354-.383.354-.383.008zm1.589-.643c0-.132.102-.177.227-.1.125.077.227.185.227.241 0 .055-.102.1-.227.1s-.227-.108-.227-.241zm-1.892-.27c.098-.156.181-.437.184-.624.008-.449 1.255-.492 1.255-.043 0 .191-.137.266-.342.187-.201-.077-.458.054-.622.317-.154.246-.363.448-.465.448-.103 0-.106-.128-.008-.284zm2.29-.113c-.218-.05-.397-.185-.397-.301 0-.274.843-.273 1.012.001.17.275-.113.414-.614.3zm2.598-1.209c.045-.135.178-.244.297-.244s.252.109.297.244c.045.134-.089.244-.297.244s-.342-.11-.297-.244zm1.092-.437c0-.125.096-.228.214-.228.117 0 .277.102.354.227.077.125-.019.227-.214.227s-.354-.102-.354-.227zm-1.776-.601c.101-.513.725-.866 1.205-.682.355.136.336.201-.175.604-.697.548-1.128.581-1.029.078zm-1.508-.295c-.11-.179.048-.512.418-.883.328-.328.596-.471.596-.317 0 .153.154.278.341.278.187 0 .341.09.341.2s-.153.327-.34.482c-.28.233-.34.213-.34-.111 0-.329-.069-.309-.418.123-.311.385-.464.443-.596.229zm4.926-.056c.141-.421.629-.491.629-.09 0 .198-.161.36-.359.36s-.319-.122-.27-.27zm-1.543-.21c-.196-.317.395-.708.664-.439.218.218.008.691-.308.691-.11 0-.27-.113-.356-.252zm-2.709-2.472c.077-.125.313-.226.524-.224.331.003.337.034.044.224-.445.287-.745.287-.568 0zm1.631-.602c-.081-.082.106-.383.416-.671.601-.557.75-1.215.28-1.242-.343-.019 1.887-.793 2.829-.981 1.041-.208.671.337-.676.997-.67.328-1.166.725-1.173.939-.008.204-.265.537-.573.738-.605.397-.871.45-1.102.219zm-11.28-.541c.002-.671.78-1.921 1.199-1.927.164-.002.68-.385 1.146-.851.466-.466.972-.846 1.124-.844.173.002.191.066.049.17-.125.091-.366.436-.536.766-.17.33-.91 1.195-1.646 1.923-1.215 1.202-1.337 1.272-1.336.763zm3.177-1.809c0-.125.154-.227.341-.227.188 0 .341.102.341.227s-.154.227-.341.227-.341-.102-.341-.227zm6.131-.2c0-.125.102-.29.227-.368.125-.077.227-.038.227.087s-.102.29-.227.367c-.125.077-.227.038-.227-.087zm3.86-1.389c0-.125.205-.227.455-.227s.454.102.454.227-.204.227-.454.227-.454-.102-.454-.227zm-7.039-1.538c0-.178 1.602-1.058 2.328-1.279.485-.148.528-.589.057-.589-.662 0-.329-.436.511-.669 1.637-.455 1.748-.308.765 1.011-.425.57-.874.906-1.284.961-.347.046-.916.232-1.265.412-.703.363-1.111.42-1.111.153z" transform="translate(-65.937 -154.558)"/></svg>